#!OML:ASF F:\VICON\USERDATA\INSTALL\rory3\rory3.ASF
:FULLY-SPECIFIED
:DEGREES
94
root -0.6975670130959336 17.472338591119208 34.95420060302876 3.1969010839270484 -1.3618534304913088 -3.0487232692971236
lfemur -24.77675030237318 6.520875737792231 -9.857568901245463
ltibia 96.2422729670549
lfoot 22.700675348715677 -18.14404589927324
ltoes 13.77667073539309
rfemur -30.758542491664677 -4.43675992559629 28.13149638083534
rtibia 78.99612372771342
rfoot -24.148110645376654 -17.929772867241496
rtoes 4.841549338241026
lowerback 1.0 0.6043701141362838 4.055932088251938
upperback 0.4290477168744204 0.9074057661918817 2.986725845954659
thorax -8.258386888562152 0.09658485600846989 0.9905148924967715
lowerneck -22.074477798615437 -3.933255173356444 -1.1645117966247591
upperneck 11.383346950185008 -5.015491635855741 1.9932245252825838
head 7.333003046671883 -2.391556275304662 0.1476815193233918
lclavicle 1.44814768938063e-14 2.868843959595404e-14
lhumerus -52.25666847724792 -2.75907694600075 87.65227126987709
lradius 76.22753512378128
lwrist 32.30558274665944
lhand -42.045927601004294 15.07588368425192
lfingers nan
lthumb -13.745294773332457 48.71808138640789
rclavicle 2.3208578616125175e-14 3.187597742203863e-14
rhumerus -35.109831089406626 8.091246333566431 -93.90196567490227
rradius 88.36340413528276
rwrist -21.52263615855824
rhand -22.379364017193897 1.0
rfingers nan
rthumb 4.265311900622304 11.157891942189789
95
root -0.7050372631736901 17.467470110857228 35.16330710662802 3.186675125239437 -1.390712489491111 -2.6908206446684364
lfemur -27.11036179114917 7.217287926569824 -9.867611676254164
ltibia 97.07436809025971
lfoot 20.34220208449205 -17.594163010910243
ltoes 8.477650635061824
rfemur -29.333759674328185 -4.674936893961377 27.811707610962902
rtibia 78.00326910319534
rfoot -24.732198580587976 -18.584346503384197
rtoes 0.866022892693501
lowerback 1.0 0.7297309846089153 3.7653090478464133
upperback 0.44510858895200694 1.0349450518997094 2.9395023598696945
thorax -8.018839427318795 0.11805301351775321 1.0961589939398888
lowerneck -22.207638403221814 -3.988211547132729 -1.430397675307749
upperneck 11.692889738453685 -5.166069080905024 2.16224919326839
head 7.443001146305328 -2.4488341894973007 0.21014051903964842
lclavicle -1.790239987819285e-14 6.301117139879227e-15
lhumerus -53.37161346109315 -2.687102808684143 87.53781793692313
lradius 73.99061804962025
lwrist 31.92490935364303
lhand -42.40575301156898 16.473711723529235
lfingers nan
lthumb -14.122518313708014 50.135721379981646
rclavicle -8.706920439747298e-15 9.892382344756987e-15
rhumerus -33.528755671468296 9.051167308818444 -93.81234435206575
rradius 90.41049315916004
rwrist -25.099384735332574
rhand -22.251876627256966 1.0
rfingers nan
rthumb 4.408522850947763 10.56434362483941
96
root -0.6948491102553803 17.478061689513147 35.622023340734614 3.180501495378515 -0.9146505181684557 -2.486405657732635
lfemur -29.87488280392697 7.3420130835021915 -9.924095373748923
ltibia 97.57648561164851
lfoot 18.809119159354836 -16.63951816772457
ltoes 5.906522271641137
rfemur -28.00058404616278 -5.472624433087136 27.61757452928492
rtibia 76.6120846157733
rfoot -25.25136183715528 -19.068347825022364
rtoes -2.7717763715135577
lowerback 1.0 0.6623765792611788 3.8788680009622896
upperback 0.2791188895835692 0.9915125398430435 2.8625447166402327
thorax -8.199506192954344 0.056936454999489516 1.0504226682301798
lowerneck -22.43561777834263 -4.148528365595661 -1.4386820534909017
upperneck 12.067296561765543 -5.457282463665197 2.2580695558237296
head 7.5847807776018845 -2.569820536813686 0.21467783800350565
lclavicle 1.7445524839462475e-14 -1.9357520845066945e-15
lhumerus -54.525481921453434 -2.8648965301116136 87.40834436837883
lradius 72.50049694557684
lwrist 31.851532632035624
lhand -43.42289093919563 19.30932522579851
lfingers nan
lthumb -15.140785468708682 53.03424338137583
rclavicle 2.6301831928004285e-14 1.5470934755268092e-15
rhumerus -32.0849065944713 9.821089045590229 -93.87676587686364
rradius 92.85538610872193
rwrist -28.623557920343373
rhand -22.11994476119349 1.0
rfingers nan
rthumb 4.5654783521317785 9.751817329921481
97
root -0.670118444597096 17.517895055312604 35.79509755411833 3.310806892479624 -0.5255389863389321 -2.375233400265003
lfemur -32.7170890043198 7.45098333202121 -10.151396388455813
ltibia 97.57209894903681
lfoot 17.785702419082234 -15.904655833140612
ltoes 5.027100991220493
rfemur -26.760155681319084 -6.194364136593416 27.3681390396085
rtibia 75.01498974323876
rfoot -25.873277806209565 -18.90225565724677
rtoes -5.985845362937742
lowerback 1.0 0.580037342287153 4.221199531224392
upperback -0.041531698800917005 0.9542548165780239 2.7043452448533594
thorax -8.437816170405908 0.011687145678316191 0.8687373203695898
lowerneck -22.171073523731124 -4.292370317758697 -1.2768306288407834
upperneck 12.479618337405125 -5.709392084245814 2.2516398627827248
head 7.6800160261328285 -2.690277283349536 0.18016405373492173
lclavicle 2.3930505007323405e-14 9.540960922739802e-15
lhumerus -55.715912700284214 -3.0434959147830383 87.22878989275239
lradius 71.78297616758334
lwrist 31.81917736994457
lhand -44.756908165463564 26.98627341437591
lfingers nan
lthumb -16.467664066775868 60.83953895949763
rclavicle 3.2843716096660864e-14 1.3125303647856202e-14
rhumerus -31.29492595073642 10.4679945702749 -94.1925774874251
rradius 95.92771624009413
rwrist -31.382761531994902
rhand -21.63675707139119 1.0
rfingers nan
rthumb 5.058343344208929 8.290065000624798
